<svg xmlns="http://www.w3.org/2000/svg" class="navbar__optimize-logo" width="30" height="30" viewBox="0 0 37 37"><defs><linearGradient id="a" x1="179.973%" x2="-81.25%" y1="74.269%" y2="30.762%"><stop offset="0%" stop-color="#FFFFFF"></stop><stop offset="100%" stop-color="#FFFFFF"></stop></linearGradient><linearGradient id="b" x1="117.081%" x2="-19.474%" y1="61.764%" y2="37.731%"><stop offset="0%" stop-color="#FFFFFF"></stop><stop offset="100%" stop-color="#FFFFFF"></stop></linearGradient><linearGradient id="c" x1="100%" x2="0%" y1="59.217%" y2="42.505%"><stop offset="0%" stop-color="#FFFFFF"></stop><stop offset="100%" stop-color="#FFFFFF"></stop></linearGradient></defs><g fill="rgb(235, 152, 5)"><path fill="url(#a)" d="M18.102 24.537a6.5 6.5 0 1 1 0-12.998 6.5 6.5 0 0 1 0 12.998zm0-12.22a5.726 5.726 0 1 0 0 11.453 5.726 5.726 0 0 0 0-11.453z" transform="rotate(-10 20.966 18.716)"></path><path fill="url(#b)" d="M18.611 30.768a.515.515 0 0 1-.544-.498.515.515 0 0 1 .499-.539.527.527 0 0 1 .538.499.527.527 0 0 1-.498.544l.005-.006zm-2.164-.103a.521.521 0 0 1-.458-.573.538.538 0 0 1 .572-.447.533.533 0 0 1 .447.573.527.527 0 0 1-.521.458.132.132 0 0 1-.04-.011zm3.693-.573a.521.521 0 0 1 .395-.624.538.538 0 0 1 .625.406.521.521 0 0 1-.407.613.326.326 0 0 1-.103 0 .521.521 0 0 1-.51-.383v-.012zm-5.812.103a.521.521 0 0 1-.09-.956.521.521 0 0 1 .742.613.521.521 0 0 1-.497.36.412.412 0 0 1-.155-.005v-.012zm7.822-.624a.527.527 0 0 1 .292-.676.515.515 0 0 1 .676.292.521.521 0 0 1-.292.676.573.573 0 0 1-.189.029.515.515 0 0 1-.492-.31l.005-.011zm-9.832-.178a.533.533 0 0 1-.229-.704.527.527 0 0 1 .967.086.51.51 0 0 1-.04.395.504.504 0 0 1-.457.28.607.607 0 0 1-.24-.057zm11.728-.664a.521.521 0 0 1 .166-.716.527.527 0 0 1 .716.178.51.51 0 0 1-.178.704.51.51 0 0 1-.27.086.51.51 0 0 1-.434-.252zm-13.572-.48a.527.527 0 0 1-.103-.728.515.515 0 0 1 .727-.103.515.515 0 0 1 .103.727.498.498 0 0 1-.418.206.573.573 0 0 1-.303-.097l-.006-.006zm15.284-.688a.515.515 0 0 1 .074-.722.533.533 0 0 1 .739.052.527.527 0 0 1-.052.739.538.538 0 0 1-.755-.063l-.006-.006zm-16.893-.756a.51.51 0 0 1 0-.727.51.51 0 0 1 .727 0 .51.51 0 0 1 0 .727.515.515 0 0 1-.355.143.498.498 0 0 1-.372-.143zm18.405-.676a.515.515 0 0 1-.086-.727.527.527 0 0 1 .738-.086.521.521 0 1 1-.332.928.47.47 0 0 1-.32-.115zM7.508 25.122a.521.521 0 0 1 .137-.728.533.533 0 0 1 .728.143.515.515 0 0 1-.15.716.51.51 0 0 1-.716-.132zm20.993-.653a.515.515 0 0 1-.195-.705.515.515 0 1 1 .905.499.504.504 0 0 1-.704.2l-.006.006zM6.454 23.232a.521.521 0 0 1 .656-.704.51.51 0 0 1 .29.274.515.515 0 0 1-.259.688.538.538 0 0 1-.206.04.515.515 0 0 1-.47-.304l-.01.006zm22.98-.624a.521.521 0 0 1-.31-.665.521.521 0 0 1 .665-.309.521.521 0 0 1-.177 1.008.515.515 0 0 1-.166-.04l-.012.006zm-23.678-1.42a.515.515 0 0 1 .372-.636.521.521 0 0 1 .635.372.533.533 0 0 1-.4.63.533.533 0 0 1-.126 0 .521.521 0 0 1-.481-.366zm24.302-.573a.527.527 0 0 1-.423-.573.533.533 0 0 1 .6-.423c.28.055.467.32.425.6a.521.521 0 0 1-.521.436.246.246 0 0 1-.08-.04zm-24.657-1.57a.515.515 0 0 1 .48-.572.521.521 0 0 1 .573.481.538.538 0 0 1-.486.573h-.03a.521.521 0 0 1-.537-.481zm24.394-1.007a.515.515 0 0 1 .521-.521.515.515 0 0 1 .521.521.515.515 0 0 1-.521.521.515.515 0 0 1-.515-.52h-.006zm-23.908-.573a.533.533 0 0 1-.48-.572.533.533 0 0 1 .572-.47c.29.027.504.283.481.573a.527.527 0 0 1-.521.47H5.887zm23.765-1.248a.538.538 0 0 1 .435-.601.527.527 0 0 1 .573.435.515.515 0 0 1-.436.573.178.178 0 0 1-.074 0 .533.533 0 0 1-.498-.424v.017zm-23.478-.813a.527.527 0 0 1-.384-.659.515.515 0 1 1 .996.27.51.51 0 0 1-.498.383.573.573 0 0 1-.126-.011l.012.017zm23.014-1.145a.51.51 0 0 1 .32-.653.515.515 0 0 1 .66.32.527.527 0 0 1-.327.67.848.848 0 0 1-.166 0 .533.533 0 0 1-.499-.332l.012-.005zm-22.413-.86a.527.527 0 0 1 .045-.97.521.521 0 1 1 .173 1.011.533.533 0 0 1-.218-.04zm21.6-.956a.521.521 0 0 1 .217-.71.533.533 0 0 1 .71.206.521.521 0 0 1-.217.71.487.487 0 0 1-.24.064.538.538 0 0 1-.47-.27zM7.76 11.55a.527.527 0 0 1-.138-.727.527.527 0 0 1 .728-.126c.23.163.29.479.137.716a.573.573 0 0 1-.435.229.504.504 0 0 1-.32-.092h.028zm19.55-.756a.538.538 0 0 1 .086-.738.527.527 0 0 1 .738.091.515.515 0 0 1-.126.733.533.533 0 0 1-.32.115.573.573 0 0 1-.407-.2h.029zM8.985 9.89a.51.51 0 0 1 0-.727.527.527 0 0 1 .739 0 .533.533 0 0 1 0 .739.527.527 0 0 1-.372.155.492.492 0 0 1-.372-.167h.005zm16.939-.572a.51.51 0 0 1-.034-.727.504.504 0 0 1 .727 0c.212.19.23.515.04.727a.533.533 0 0 1-.384.177.521.521 0 0 1-.355-.16l.006-.017zm-15.427-.853a.51.51 0 0 1 .115-.728.527.527 0 0 1 .727.115.515.515 0 0 1-.115.727.538.538 0 0 1-.303.092.498.498 0 0 1-.424-.206zm13.84-.321a.515.515 0 0 1-.165-.699.515.515 0 0 1 .715-.166c.238.156.311.471.166.716a.573.573 0 0 1-.446.246.51.51 0 0 1-.27-.103v.006zm-12.11-.836a.51.51 0 0 1 .24-.699.51.51 0 0 1 .687.24.51.51 0 0 1-.458.75.51.51 0 0 1-.47-.291zm10.347-.086a.51.51 0 0 1-.28-.676.51.51 0 0 1 .675-.275.504.504 0 0 1 .28.676.521.521 0 0 1-.48.32.659.659 0 0 1-.195-.04v-.005zm-8.446-.756a.521.521 0 0 1 .743-.608.51.51 0 0 1 .247.316.521.521 0 0 1-.343.647.813.813 0 0 1-.155 0 .51.51 0 0 1-.492-.355zm6.55.155a.515.515 0 0 1-.166-.942.515.515 0 0 1 .78.547.51.51 0 0 1-.613.395zm-4.535-.653a.51.51 0 0 1 .447-.573.527.527 0 0 1 .573.458.538.538 0 0 1-.459.573h-.034a.51.51 0 0 1-.527-.458zm2.56.384a.504.504 0 0 1-.487-.539.521.521 0 0 1 .538-.498.533.533 0 0 1 .499.573.521.521 0 0 1-.521.486h-.029v-.022z" transform="rotate(-10 20.966 18.716)"></path><path fill="url(#c)" d="M30.854 5.285A18.038 18.038 0 1 0 5.35 30.8 18.038 18.038 0 0 0 30.854 5.285zM18.102 34.633c-9.172 0-16.607-7.435-16.607-16.606C1.495 8.855 8.93 1.42 18.102 1.42c9.171 0 16.606 7.435 16.606 16.607a16.606 16.606 0 0 1-16.606 16.606z" transform="rotate(-10 20.966 18.716)"></path></g></svg>